{"title":"Cheetah (2007) Hindi Dvd Rip x264. AC3 Ramukaka [ExDR]","uid":7615404,"size":618842168,"categoryP":"video","categoryS":"movies","magnet":"?xt=urn:btih:ba754da553ed3dfdc2722b32abbedd199ada0fbf&amp;dn=Cheetah+%282007%29+Hindi+Dvd+Rip+x264.+AC3+Ramukaka+%5BExDR%5D&amp;tr=udp%3A%2F%2Ftracker.openbittorrent.com%3A80&amp;tr=udp%3A%2F%2Fopen.demonii.com%3A1337&amp;tr=udp%3A%2F%2Ftracker.coppersurfer.tk%3A6969&amp;tr=udp%3A%2F%2Fexodus.desync.com%3A6969","seeders":0,"leechers":0,"uploader":"ramukaka0","files":1,"time":1347182797,"description":"Format                                   : Matroska\nFormat version                           : Version 2\nFile size                                : 590 MiB\nDuration                                 : 1h 37mn\nOverall bit rate                         : 845 Kbps\nWriting application                      : HandBrake 0.9.8\nWriting library                          : libmkv 0.6.5\n\nVideo\nID                                       : 1\nFormat                                   : AVC\nFormat/Info                              : Advanced Video Codec\nFormat profile                           : &lt;a class=&quot;__cf_email__&quot; href=&quot;/cdn-cgi/l/email-protection&quot; data-cfemail=&quot;b5f8d4dcdbf5f9879b84&quot;&gt;[email&amp;#160;protected]&lt;/a&gt;&lt;script cf-hash='f9e31' type=&quot;text/javascript&quot;&gt;\n/* &lt;![CDATA[ */!function(){try{var t=&quot;currentScript&quot;in document?document.currentScript:function(){for(var t=document.getElementsByTagName(&quot;script&quot;),e=t.length;e--;)if(t[e].getAttribute(&quot;cf-hash&quot;))return t[e]}();if(t&amp;&amp;t.previousSibling){var e,r,n,i,c=t.previousSibling,a=c.getAttribute(&quot;data-cfemail&quot;);if(a){for(e=&quot;&quot;,r=parseInt(a.substr(0,2),16),n=2;a.length-n;n+=2)i=parseInt(a.substr(n,2),16)^r,e+=String.fromCharCode(i);e=document.createTextNode(e),c.parentNode.replaceChild(e,c)}}}catch(u){}}();/* ]]&gt; */&lt;/script&gt;\nFormat settings, CABAC                   : Yes\nFormat settings, ReFrames                : 4 frames\nCodec ID                                 : V_MPEG4/ISO/AVC\nDuration                                 : 1h 37mn\nBit rate                                 : 188 Kbps\nNominal bit rate                         : 200 Kbps\nWidth                                    : 640 pixels\nHeight                                   : 280 pixels\nDisplay aspect ratio                     : 2.25:1\nFrame rate mode                          : Constant\nFrame rate                               : 25.000 fps\nColor space                              : YUV\nChroma subsampling                       : 4:2:0\nBit depth                                : 8 bits\nScan type                                : Progressive\nBits/(Pixel*Frame)                       : 0.042\nStream size                              : 131 MiB (22%)\nWriting library                          : x264 core 120\nEncoding settings  \nLanguage                                 : English\nDefault                                  : Yes\nForced                                   : No\nColor primaries                          : BT.601 NTSC\nTransfer characteristics                 : BT.709\nMatrix coefficients                      : BT.601\n\nAudio\nID                                       : 2\nFormat                                   : AC-3\nFormat/Info                              : Audio Coding 3\nMode extension                           : CM (complete main)\nFormat settings, Endianness              : Big\nCodec ID                                 : A_AC3\nDuration                                 : 1h 37mn\nBit rate mode                            : Constant\nBit rate                                 : 640 Kbps\nChannel(s)                               : 2 channels\nChannel positions                        : Front: L R\nSampling rate                            : 44.1 KHz\nBit depth                                : 16 bits\nCompression mode                         : Lossy\nStream size                              : 447 MiB (76%)\nDefault                                  : Yes\nForced                                   : No\n\n\n\n\n\n\n\n &lt;a href=&quot;\nhttp://img266.imageshack.us/img266/3100/cheetahm.jpg&quot; rel=&quot;nofollow&quot; target=&quot;_NEW&quot;&gt;\nhttp://img266.imageshack.us/img266/3100/cheetahm.jpg&lt;/a&gt; &lt;a href=&quot;\nhttp://img812.imageshack.us/img812/3582/vlcsnap2012090911h43m53.png&quot; rel=&quot;nofollow&quot; target=&quot;_NEW&quot;&gt;\nhttp://img812.imageshack.us/img812/3582/vlcsnap2012090911h43m53.png&lt;/a&gt; &lt;a href=&quot;\nhttp://img580.imageshack.us/img580/3938/vlcsnap2012090911h43m58.png&quot; rel=&quot;nofollow&quot; target=&quot;_NEW&quot;&gt;\nhttp://img580.imageshack.us/img580/3938/vlcsnap2012090911h43m58.png&lt;/a&gt; &lt;a href=&quot;\nhttp://img18.imageshack.us/img18/8120/vlcsnap2012090911h44m05.png&quot; rel=&quot;nofollow&quot; target=&quot;_NEW&quot;&gt;\nhttp://img18.imageshack.us/img18/8120/vlcsnap2012090911h44m05.png&lt;/a&gt; &lt;a href=&quot;\nhttp://img703.imageshack.us/img703/1381/vlcsnap2012090911h44m15.png&quot; rel=&quot;nofollow&quot; target=&quot;_NEW&quot;&gt;\nhttp://img703.imageshack.us/img703/1381/vlcsnap2012090911h44m15.png&lt;/a&gt; &lt;a href=&quot;\nhttp://img845.imageshack.us/img845/7425/vlcsnap2012090911h44m23.png&quot; rel=&quot;nofollow&quot; target=&quot;_NEW&quot;&gt;\nhttp://img845.imageshack.us/img845/7425/vlcsnap2012090911h44m23.png&lt;/a&gt; &lt;a href=&quot;\nhttp://img821.imageshack.us/img821/3730/vlcsnap2012090911h44m52.png&quot; rel=&quot;nofollow&quot; target=&quot;_NEW&quot;&gt;\nhttp://img821.imageshack.us/img821/3730/vlcsnap2012090911h44m52.png&lt;/a&gt;","torrent":{"xt":"urn:btih:ba754da553ed3dfdc2722b32abbedd199ada0fbf","amp;dn":"Cheetah+%282007%29+Hindi+Dvd+Rip+x264.+AC3+Ramukaka+%5BExDR%5D","amp;tr":["udp%3A%2F%2Ftracker.openbittorrent.com%3A80","udp%3A%2F%2Fopen.demonii.com%3A1337","udp%3A%2F%2Ftracker.coppersurfer.tk%3A6969","udp%3A%2F%2Fexodus.desync.com%3A6969"],"infoHash":"ba754da553ed3dfdc2722b32abbedd199ada0fbf","infoHashBuffer":{"type":"Buffer","data":[186,117,77,165,83,237,61,253,194,114,43,50,171,190,221,25,154,218,15,191]},"announce":[],"urlList":[]}}